<svg width="142" height="25" viewBox="0 0 142 25" fill="none" xmlns="http://www.w3.org/2000/svg">
<g clip-path="url(#clip0_61_159)">
<path d="M21.4564 11.9915H12.0982V13.0185H20.9315V20.1206C15.0894 26.1391 7.30745 22.3493 6.98182 22.1866C3.16791 20.0435 1.05657 16.1887 1.33196 11.8751C1.59869 7.67791 4.03219 4.13973 7.67983 2.64367C15.2817 -0.475123 20.4535 4.29037 20.67 4.49407L20.7254 4.54713L21.4494 3.81622L21.3923 3.76315C21.3351 3.70838 15.5051 -1.67163 7.278 1.70393C3.26144 3.35233 0.585459 7.22601 0.294479 11.8118C-0.00516149 16.5208 2.30709 20.7317 6.48473 23.0802C6.51245 23.0939 9.35816 24.4872 12.9452 24.4872C16.456 24.4872 19.4455 23.2017 21.8322 20.6649C21.9205 20.5708 21.969 20.4492 21.969 20.3208V12.4999C21.969 12.2192 21.7387 11.9915 21.4546 11.9915H21.4564Z" fill="#E84126"/>
<path d="M12.9781 24.8336C9.33041 24.8336 6.41022 23.4026 6.38078 23.3872C2.09055 20.9651 -0.280588 16.6326 0.0259798 11.7918C0.32562 7.07256 3.07261 3.08762 7.19656 1.38786C15.5848 -2.06814 21.5741 3.45907 21.633 3.51556L21.9413 3.80656L20.7358 5.02874L20.4292 4.73774C20.2197 4.53918 15.2262 -0.0773879 7.86685 2.95582C4.35431 4.40395 2.01261 7.82915 1.75454 11.898C1.48954 16.078 3.52813 19.8148 7.20868 21.8928C7.51006 22.0435 14.956 25.6792 20.5851 19.9859V13.3632H11.7518V11.6515H21.4563C21.9326 11.6515 22.3171 12.0332 22.3171 12.5022V20.3249C22.3171 20.5388 22.2357 20.7442 22.0885 20.9017C19.6429 23.5104 16.5772 24.8336 12.9781 24.8336ZM12.8585 1.01813C11.2755 1.01813 9.51921 1.31597 7.63476 2.09652C3.78101 3.69187 1.21068 7.45257 0.930096 11.9099C0.640848 16.4854 2.86823 20.5799 6.88826 22.8617C6.90038 22.8668 9.65603 24.2242 13.1149 24.2242C16.4923 24.2242 19.3692 22.9746 21.6642 20.5114C21.6936 20.4806 21.7975 20.3985 21.7975 20.3985V12.5005C21.7975 12.4081 21.7213 12.3345 21.6295 12.3345H12.4446V12.6768H21.4511V20.3351L21.2779 20.4344C15.3198 26.6344 7.38535 22.7384 7.05107 22.5707C3.14189 20.3523 0.985521 16.3776 1.26611 11.9305C1.53977 7.60149 4.03042 3.95034 7.7664 2.40122C14.7638 -0.496765 19.7555 3.24853 20.8068 4.14548L21.0372 3.91097C20.2456 3.2588 17.2025 1.01813 12.8585 1.01813Z" fill="#E84127"/>
<path d="M43.9204 15.2437H47.6044V14.2167H43.5237L37.3854 0.591226C37.2711 0.339599 36.9663 0.209507 36.6857 0.341311C36.5766 0.392663 36.4952 0.488521 36.445 0.598072L30.2512 14.2167H26.129V15.2437H29.7697L25.4414 24.6583H26.5672L30.8956 15.2437H42.798L47.0865 24.6583H48.2106L43.9221 15.2437H43.9204ZM42.4707 14.2167H31.4411L36.9819 2.16603L42.4707 14.2167Z" fill="#E84126"/>
<path d="M48.8239 25.0005H46.9447L42.6562 15.5859H31.1988L26.8705 25.0005H24.9878L29.3161 15.5859H25.7811V13.8741H30.0263L36.123 0.525956C36.2234 0.305142 36.4053 0.120273 36.6391 0.0449568C37.0756 -0.0988296 37.5242 0.115138 37.7008 0.503704L43.7491 13.8724H47.951V15.5842H44.5354L48.8239 24.9987V25.0005ZM47.3101 24.3158H47.6773L43.3888 14.9012H47.2582V14.5588H43.3005L37.0704 0.457487C37.0427 0.395864 36.9821 0.356494 36.9162 0.356494C36.8504 0.356494 36.7915 0.395864 36.7638 0.457487L30.4748 14.5605H26.4756V14.9029H30.3086L25.9802 24.3175H26.3474L30.6758 14.9029H43.0234L47.3119 24.3175L47.3101 24.3158ZM43.0078 14.5588H30.9044L36.9838 1.33561L43.0078 14.5588ZM31.98 13.8741H41.9356L36.9821 2.996L31.9817 13.8741H31.98Z" fill="#E84127"/>
<path d="M69.9704 7.94943C69.9704 3.94738 66.8857 0.693359 63.096 0.693359H53.1438C52.8598 0.693359 52.6294 0.921021 52.6294 1.20175V24.6578H53.6686V15.2432L62.9644 15.2021L69.7643 24.6269L69.7886 24.6595H70.8693L64.0608 15.1302C67.4382 14.6252 69.9722 11.5663 69.9722 7.95286L69.9704 7.94943ZM68.971 7.96826C68.971 11.3986 66.3557 14.2024 63.1428 14.2161L53.6686 14.2589V1.7204H63.1185C66.347 1.7204 68.9728 4.52253 68.9728 7.96826H68.971Z" fill="#E84126"/>
<path d="M71.6626 25.0007H69.385L69.2585 24.8243L62.6578 15.5861L54.015 15.6254V25.0007H52.283V1.2023C52.283 0.731569 52.6692 0.351562 53.1438 0.351562H63.167C67.1749 0.351562 70.4363 3.75964 70.4363 7.94999C70.4363 11.5138 68.0201 14.6035 64.7327 15.3635L71.6626 25.0007ZM70.2908 24.316H70.199L63.4528 14.874L64.007 14.7918C67.2095 14.3142 69.624 11.3735 69.624 7.9517C69.624 4.13965 66.6951 1.03626 63.0943 1.03626H53.142C53.0485 1.03626 52.974 1.11158 52.974 1.2023V24.316H53.3204V14.9014L63.3367 14.8569L70.2908 24.316ZM53.3204 14.6035V1.37861H63.1168C66.5358 1.37861 69.3174 4.33479 69.3174 7.96882C69.3174 11.6028 66.5479 14.5436 63.1428 14.559L53.3204 14.6035ZM54.0133 2.0633V13.8743L63.1081 13.8332C66.1218 13.8196 68.5727 11.18 68.5727 7.94828C68.5727 4.71651 66.1097 2.0633 63.0839 2.0633H54.0133Z" fill="#E84127"/>
<path d="M76.7028 13.3603H90.9054V12.3332H76.7028V1.7204H92.1178V0.693359H76.178C75.8939 0.693359 75.6636 0.921021 75.6636 1.20175V24.1494C75.6636 24.4301 75.8939 24.6578 76.178 24.6578H92.1178V23.6307H76.7028V13.3603Z" fill="#E84126"/>
<path d="M92.4641 25.0007H76.3511C75.8747 25.0007 75.4902 24.6189 75.4902 24.1499V1.2023C75.4902 0.731569 75.8765 0.351562 76.3511 0.351562H92.4641V2.0633H77.0491V11.9914H91.2516V13.7032H77.0491V23.2889H92.4641V25.0007ZM76.1778 1.03626C76.0843 1.03626 76.0098 1.11158 76.0098 1.2023V24.1499C76.0098 24.2424 76.0843 24.316 76.1778 24.316H91.7713V23.9736H76.3562V13.0185H90.5588V12.6761H76.3562V1.37861H91.7713V1.03626H76.1778Z" fill="#E84127"/>
<path d="M98.6994 13.3603H112.902V12.3332H98.6994V1.7204H114.114V0.693359H98.1746C97.8905 0.693359 97.6602 0.921021 97.6602 1.20175V24.1494C97.6602 24.4301 97.8905 24.6578 98.1746 24.6578H114.114V23.6307H98.6994V13.3603Z" fill="#E84126"/>
<path d="M114.461 25.0007H98.1745C97.6982 25.0007 97.3137 24.6189 97.3137 24.1499V1.2023C97.3137 0.731569 97.7 0.351562 98.1745 0.351562H114.461V2.0633H99.0457V11.9914H113.248V13.7032H99.0457V23.2889H114.461V25.0007ZM98.1745 1.03626C98.081 1.03626 98.0065 1.10986 98.0065 1.2023V24.1499C98.0065 24.2424 98.081 24.316 98.1745 24.316H113.768V23.9736H98.3529V13.0185H112.556V12.6761H98.3529V1.37861H113.595V1.03626H98.1745Z" fill="#E84127"/>
<path d="M141.654 24.6569L141.631 0.901389C141.631 0.682286 141.488 0.488859 141.275 0.418678C141.062 0.350208 140.829 0.422101 140.694 0.598411L130.65 13.8353L120.594 0.589852C120.461 0.413542 120.229 0.341649 120.014 0.410119C119.801 0.478589 119.659 0.672016 119.657 0.89283L119.83 24.5679V24.6587H120.87L120.88 2.42655L130.259 14.9907C130.351 15.1123 130.503 15.1859 130.668 15.1859C130.832 15.1859 130.986 15.1123 131.076 14.9907L140.44 2.43682L140.613 24.5662V24.6587H141.652L141.654 24.6569Z" fill="#E84126"/>
<path d="M121.216 24.8273H119.484V0.874846C119.46 0.506822 119.697 0.183302 120.05 0.0669039C120.404 -0.0494946 120.79 0.0720391 121.012 0.366459L130.704 13.2439L140.382 0.376729C140.604 0.0823096 140.989 -0.0375124 141.342 0.0754626C141.697 0.191861 141.934 0.51538 142 0.883405V24.9984H140.268V3.45273L131.397 15.1782C131.239 15.387 130.981 15.512 130.706 15.512C130.43 15.512 130.172 15.387 130.015 15.1799L121.216 3.44417V24.829V24.8273ZM120.177 24.1426H120.523V1.37639L130.571 14.7691C130.623 14.8392 130.789 14.8392 130.841 14.7691L140.961 1.38495V24.312H141.307V0.885117C141.242 0.813224 141.195 0.749889 141.126 0.727636C141.056 0.705384 140.982 0.727636 140.938 0.785836L130.706 14.3925L120.456 0.775565C120.412 0.717366 120.338 0.693402 120.267 0.717366C120.197 0.739619 120.152 0.802953 120.177 0.874846V24.1426Z" fill="#E84127"/>
</g>
<defs>
<clipPath id="clip0_61_159">
<rect width="142" height="25" fill="white"/>
</clipPath>
</defs>
</svg>
